<svg viewBox="0 0 440 440" xmlns="http://www.w3.org/2000/svg">
  <path d="M220,361.0978282801807C241.3057845607521,353.9319044605415,260.89279756563644,343.78479606133914,283.0827534546143,340.1941446464464C317.36863712113035,334.64619956201403,358.13069463901036,355.5624284825311,385.5952574971451,334.3021533087401C410.8102300037451,314.78328250934163,402.34483324375356,274.1557634239181,408.7465675992604,242.9179825642967C415.66911929308105,209.13883135428864,447.49366001975045,168.3630769461975,424.94884116785107,142.27315702763028C398.21163878247324,111.33161459770461,340.53932740053824,144.58627866254554,305.5237225216254,123.46367337097696C279.6284738582252,107.84277753509146,287.06415683272456,63.28916591500429,263.2064291595314,44.70462609485623C237.39858476969616,24.600996851322158,201.5863452535659,8.748478708812112,170.22947043181844,18.073023857219578C138.6386146275786,27.467147566868285,120.29186732072141,61.682777785074656,106.09273801693386,91.425280331612C94.10967976143166,116.52584340518796,107.52474269834595,147.64205070377,96.23700446738663,173.0628869880991C83.96557191291988,200.69907694559544,48.371043491419115,213.11459028693395,39.25616481319731,241.94627492357884C29.010500602001386,274.3547983783078,25.116616422680938,313.2924440854994,42.71085827313515,342.3738587923534C60.24831194902943,371.3614086729273,96.17956768613514,388.16625482459773,129.8719781230952,391.7245983240823C161.89156820175796,395.10627089469733,189.48222068617608,371.36208684732475,220,361.0978282801807" fill="#EFB608" />
</svg>